<?xml version="1.0" encoding="UTF-8"?>
<svg id="Layer_2" data-name="Layer 2" xmlns="http://www.w3.org/2000/svg" viewBox="0 0 530.3 530.3">
  <defs>
    <linearGradient id="bg" x1="265.15" y1="24" x2="265.15" y2="506.3" gradientUnits="userSpaceOnUse">
      <stop offset="0" stop-color="#2b2b31"/>
      <stop offset="0.52" stop-color="#17171c"/>
      <stop offset="1" stop-color="#0d0d10"/>
    </linearGradient>
    <radialGradient id="sheen" cx="170" cy="110" r="300" gradientUnits="userSpaceOnUse">
      <stop offset="0" stop-color="#ffffff" stop-opacity="0.18"/>
      <stop offset="0.45" stop-color="#ffffff" stop-opacity="0.04"/>
      <stop offset="1" stop-color="#ffffff" stop-opacity="0"/>
    </radialGradient>
    <filter id="tile-shadow" x="-12%" y="-12%" width="124%" height="124%">
      <feDropShadow dx="0" dy="10" stdDeviation="12" flood-color="#000000" flood-opacity="0.16"/>
    </filter>
    <filter id="wave-shadow" x="-10%" y="-10%" width="120%" height="120%">
      <feDropShadow dx="0" dy="5" stdDeviation="4" flood-color="#000000" flood-opacity="0.22"/>
    </filter>
    <style>
      .wave-fill {
        fill: #e7e5df;
      }
    </style>
  </defs>
  <g id="Layer_1-2" data-name="Layer 1">
    <g filter="url(#tile-shadow)">
      <path d="M265.15,0c258.68,0,265.15,6.47,265.15,265.15s-6.47,265.15-265.15,265.15S0,523.84,0,265.15,6.47,0,265.15,0Z" fill="url(#bg)"/>
      <path d="M265.15,0c258.68,0,265.15,6.47,265.15,265.15s-6.47,265.15-265.15,265.15S0,523.84,0,265.15,6.47,0,265.15,0Z" fill="url(#sheen)"/>
    </g>
    <path d="M410.15,330.58l-4.16-12.39c-9.18-27.22-18.64-46.46-28.43-57.73-9.68-11.28-22.44-15.76-38.16-13.39-11.71,1.76-22.69,6.92-32.89,15.45-10.19,8.59-20.98,20.11-32.31,34.56-12.27,15.13-25.05,27.17-38.34,36.23-13.35,9.01-28.5,14.79-45.45,17.34-32.94,4.96-58.93-1.74-78.04-20.02-19.1-18.29-35.11-46.88-48.13-85.77l-10.35-30.59,65.5-9.86,4.16,12.39c9.18,27.22,18.21,46.52,27.09,57.93,8.88,11.4,19.66,16.18,32.39,14.26,11.5-1.73,21.67-6.82,30.61-15.33,8.94-8.51,18.76-19.56,29.46-33.14,11.97-15.31,25.15-27.63,39.39-36.93,14.34-9.32,30.34-15.29,48.04-17.95,36.41-5.48,64.77.58,85.03,18.2,20.26,17.62,36.65,45.12,49.17,82.55l11.66,34.22-66.25,9.97Z" class="wave-fill" filter="url(#wave-shadow)"/>
  </g>
</svg>
